<svg width="37" height="37" viewBox="0 0 37 37" fill="none" xmlns="http://www.w3.org/2000/svg">
<circle cx="18.1531" cy="18.1531" r="17.096" fill="black" stroke="black" stroke-width="2.11421"/>
<path d="M23.0247 23.5032C22.6986 23.8999 22.0858 24.3003 21.1953 24.5997C20.3156 24.8954 19.2611 25.0594 18.1683 25.061C17.0755 25.0625 16.0189 24.9014 15.1353 24.608C14.241 24.3111 13.622 23.9118 13.2899 23.5142" stroke="white" stroke-width="1.40948" stroke-linecap="round" stroke-linejoin="round"/>
<circle cx="8.30052" cy="18.8409" r="2.44456" fill="white"/>
<circle cx="28.0056" cy="18.8409" r="2.44456" fill="white"/>
<rect x="12.0801" y="13.689" width="2.09129" height="6.01611" rx="1.04565" fill="white"/>
<rect x="22.1157" y="13.689" width="2.09129" height="6.01611" rx="1.04565" fill="white"/>
<rect x="25.3398" y="11.2881" width="0.978309" height="5.04495" rx="0.489155" transform="rotate(90 25.3398 11.2881)" fill="white"/>
<rect x="15.9517" y="11.2881" width="0.978309" height="5.04495" rx="0.489155" transform="rotate(90 15.9517 11.2881)" fill="white"/>
<path d="M29.6299 9.07596L30.446 11.5176L32.6514 12.4211L30.446 13.3246L29.6299 15.7663L28.8138 13.3246L26.6084 12.4211L28.8138 11.5176L29.6299 9.07596Z" fill="white"/>
</svg>
