<svg width="33" height="29" viewBox="0 0 33 29" fill="none" xmlns="http://www.w3.org/2000/svg">
<path fill-rule="evenodd" clip-rule="evenodd" d="M29.3597 1.02449C29.7515 0.859563 30.1804 0.802682 30.6017 0.859763C31.023 0.916844 31.4213 1.0858 31.7551 1.34905C32.089 1.61229 32.3461 1.96021 32.4999 2.35657C32.6536 2.75294 32.6983 3.18327 32.6293 3.60277L29.033 25.4167C28.6842 27.5209 26.3755 28.7276 24.4457 27.6794C22.8315 26.8026 20.434 25.4516 18.2775 24.0419C17.1993 23.3363 13.8963 21.0767 14.3023 19.4689C14.6511 18.0941 20.2009 12.928 23.3722 9.85661C24.617 8.64993 24.0493 7.95382 22.5794 9.06378C18.9292 11.8197 13.0686 16.0106 11.1309 17.1903C9.42159 18.2305 8.53045 18.4081 7.46488 18.2305C5.52086 17.907 3.71797 17.4059 2.24647 16.7955C0.258056 15.9709 0.354781 13.2372 2.24489 12.4412L29.3597 1.02449Z" fill="black"/>
</svg>
